<?xml version="1.0" encoding="utf-8"?>
<!-- Generator: Adobe Illustrator 21.0.2, SVG Export Plug-In . SVG Version: 6.00 Build 0)  -->
<svg version="1.1" id="Layer_1" xmlns="http://www.w3.org/2000/svg" xmlns:xlink="http://www.w3.org/1999/xlink" x="0px" y="0px"
	 viewBox="0 0 430 110" style="enable-background:new 0 0 430 110;" xml:space="preserve">
<style type="text/css">
	.st0{fill:#CCCCCC;}
</style>
<g>
	<path class="st0" d="M10.2,102.2V7.8h13l17.4,50h0.3l17.2-50h13.1v94.4H57.7V44.8h-0.3L44,85.4h-6.8L24,44.8h-0.3v57.4H10.2z"/>
	<path class="st0" d="M77.9,102.2L98.9,7.8h11.3l21.1,94.4h-13.5l-4-20.3H95.4l-4,20.3H77.9z M111.3,69.2L104.6,35h-0.3l-6.6,34.2
		H111.3z"/>
	<path class="st0" d="M137.9,102.2V7.8h13.5v43.1h0.3l19.8-43.1H185l-18.4,37.8l21.9,56.6h-14.3l-15.4-41.9L151.4,74v28.2H137.9z"/>
	<path class="st0" d="M194.4,102.2V7.8h40.3v12.7h-26.8v27.7h23.3V61h-23.3v27.7h26.8v13.5H194.4z"/>
	<path class="st0" d="M243.4,102.2V7.8h21.7c15.9,0,23.9,9.2,23.9,27.7c0,5.6-0.9,10.3-2.6,14.2c-1.7,3.9-4.8,7-9.1,9.4l14.6,43.1
		h-14.3L265,61.9H257v40.3H243.4z M257,20.5V50h7.7c2.4,0,4.3-0.3,5.7-1c1.4-0.7,2.5-1.6,3.3-2.9c0.7-1.2,1.2-2.8,1.5-4.6
		c0.3-1.8,0.4-3.9,0.4-6.3s-0.1-4.5-0.4-6.3c-0.3-1.8-0.8-3.4-1.6-4.7c-1.7-2.5-4.9-3.7-9.5-3.7H257z"/>
	<path class="st0" d="M300.3,102.2V7.8h13.5v94.4H300.3z"/>
	<path class="st0" d="M327,102.2V7.8h40.3v12.7h-26.8v27.7h23.3V61h-23.3v27.7h26.8v13.5H327z"/>
	<path class="st0" d="M419.8,35h-13.5v-3c0-3.1-0.7-5.8-2.2-8c-1.5-2.3-3.9-3.4-7.4-3.4c-1.9,0-3.4,0.4-4.5,1.1
		c-1.1,0.7-2.1,1.6-2.8,2.7c-0.7,1.1-1.2,2.5-1.5,3.9c-0.3,1.5-0.4,3-0.4,4.6c0,1.9,0.1,3.4,0.2,4.6c0.1,1.2,0.5,2.3,1,3.3
		c0.5,1,1.3,1.8,2.3,2.5c1,0.7,2.4,1.4,4.2,2.1l10.3,4.1c3,1.1,5.4,2.5,7.3,4c1.9,1.5,3.3,3.3,4.4,5.4c1,2.1,1.6,4.5,2,7.2
		c0.4,2.7,0.5,5.8,0.5,9.2c0,4-0.4,7.7-1.2,11.1c-0.8,3.4-2.1,6.3-3.8,8.7c-1.9,2.5-4.3,4.4-7.3,5.8c-3,1.4-6.7,2.1-11,2.1
		c-3.3,0-6.3-0.6-9.1-1.7c-2.8-1.1-5.3-2.7-7.3-4.8c-2-2-3.6-4.4-4.8-7.1c-1.2-2.7-1.8-5.6-1.8-8.8v-5h13.5v4.2
		c0,2.5,0.7,4.7,2.2,6.7s3.9,3,7.4,3c2.3,0,4.1-0.3,5.4-1c1.3-0.7,2.3-1.6,3-2.8c0.7-1.2,1.1-2.7,1.3-4.4s0.2-3.6,0.2-5.8
		c0-2.5-0.1-4.5-0.3-6.1c-0.2-1.6-0.5-2.9-1.1-3.8c-0.6-1-1.4-1.8-2.5-2.4c-1-0.6-2.4-1.3-4-2l-9.7-4c-5.8-2.4-9.7-5.5-11.7-9.5
		c-2-3.9-3-8.9-3-14.8c0-3.5,0.5-6.9,1.5-10.1c1-3.2,2.4-5.9,4.4-8.2c1.9-2.3,4.2-4.1,7.1-5.5c2.9-1.4,6.3-2.1,10.3-2.1
		c3.4,0,6.4,0.6,9.2,1.9c2.8,1.2,5.2,2.9,7.2,4.9c4.1,4.2,6.1,9.1,6.1,14.6V35z"/>
</g>
</svg>
